<?xml version="1.0" standalone="no"?>
<!DOCTYPE svg PUBLIC "-//W3C//DTD SVG 20010904//EN"
 "http://www.w3.org/TR/2001/REC-SVG-20010904/DTD/svg10.dtd">
<svg version="1.0" xmlns="http://www.w3.org/2000/svg"
 width="500.000000pt" height="500.000000pt" viewBox="0 0 500.000000 500.000000"
 preserveAspectRatio="xMidYMid meet">

<g transform="translate(0.000000,500.000000) scale(0.100000,-0.100000)"
fill="#000000" stroke="none">
<path d="M1184 3741 c-44 -35 -155 -149 -754 -780 -448 -471 -456 -481 -407
-548 26 -36 701 -691 1000 -972 109 -102 211 -192 227 -200 43 -21 79 -6 142
59 59 60 75 93 64 133 -8 33 -97 128 -303 323 -321 303 -674 647 -700 681 -21
28 -24 38 -15 56 12 26 83 103 542 587 481 507 460 482 440 534 -21 55 -143
166 -183 166 -3 0 -26 -18 -53 -39z m140 -80 l71 -70 -70 -73 c-691 -721 -988
-1035 -993 -1047 -1 -5 114 -118 256 -252 142 -134 389 -370 550 -523 333
-318 307 -270 203 -378 -41 -43 -57 -54 -66 -45 -6 7 -252 241 -546 522 -294
280 -571 546 -617 590 l-83 80 183 190 c343 358 955 1000 987 1038 18 20 38
37 43 37 6 0 42 -31 82 -69z"/>
<path d="M3694 3752 c-43 -32 -116 -108 -133 -139 -8 -17 -5 -28 17 -61 32
-48 228 -256 572 -607 313 -318 420 -434 420 -452 0 -8 -220 -236 -488 -506
-268 -271 -500 -507 -515 -525 -15 -19 -27 -42 -27 -52 0 -38 144 -180 183
-180 10 0 68 46 130 102 188 171 1101 1091 1121 1129 25 48 17 74 -46 151
-106 129 -1163 1168 -1188 1168 -4 0 -25 -13 -46 -28z m658 -629 c335 -335
608 -612 608 -618 0 -6 -277 -287 -615 -625 l-615 -615 -72 73 -73 72 548 548
547 547 -542 542 -543 543 70 70 c38 38 72 70 75 70 3 0 278 -273 612 -607z"/>
<path d="M1532 3190 c-23 -5 -56 -19 -72 -30 l-30 -21 0 -542 c0 -410 3 -548
13 -566 29 -57 157 -81 234 -44 51 24 63 62 70 219 3 74 10 137 16 141 15 9
43 -27 102 -137 86 -160 123 -190 230 -190 108 0 139 27 234 209 30 56 59 101
66 101 18 0 25 -138 26 -554 0 -398 5 -456 37 -488 35 -36 67 -18 188 109 100
105 112 115 132 104 11 -6 68 -69 126 -140 58 -71 119 -140 136 -154 39 -33
83 -41 185 -33 102 7 143 21 151 50 11 45 -17 86 -194 293 -145 169 -182 220
-182 247 0 12 35 64 79 117 96 116 241 304 277 358 32 49 27 84 -16 106 -42
22 -220 21 -266 -1 -19 -9 -62 -50 -97 -92 -201 -242 -209 -250 -218 -224 -4
9 -9 256 -13 547 -8 600 -7 588 -82 613 -50 18 -163 10 -199 -14 -37 -24 -92
-124 -227 -409 -66 -137 -125 -256 -133 -264 -18 -18 -37 12 -193 314 -139
268 -180 337 -214 359 -30 19 -112 27 -166 16z m359 -456 c110 -223 203 -404
206 -401 6 7 341 721 362 775 l13 32 104 0 104 0 0 -666 c0 -583 2 -665 15
-654 8 6 101 119 207 251 l193 239 128 0 c100 0 127 -3 121 -12 -11 -18 -231
-292 -342 -426 l-93 -113 25 -32 c14 -18 113 -135 220 -261 107 -126 193 -233
190 -238 -3 -4 -62 -8 -132 -8 l-127 1 -155 194 c-85 107 -158 195 -162 195
-4 0 -68 -69 -143 -154 -74 -85 -139 -158 -145 -161 -7 -4 -10 221 -11 667 l0
673 -142 -283 -142 -283 -93 3 -94 3 -149 290 -148 290 -3 -310 -3 -310 -105
0 -105 0 -3 470 c-2 259 0 507 3 553 l7 82 100 0 100 0 199 -406z"/>
</g>
</svg>
