<?xml version="1.0" standalone="no"?>
<!DOCTYPE svg PUBLIC "-//W3C//DTD SVG 20010904//EN"
 "http://www.w3.org/TR/2001/REC-SVG-20010904/DTD/svg10.dtd">
<svg version="1.0" xmlns="http://www.w3.org/2000/svg"
 width="300.000000pt" height="300.000000pt" viewBox="0 0 300.000000 300.000000"
 preserveAspectRatio="xMidYMid meet">
<metadata>
Created by potrace 1.10, written by Peter Selinger 2001-2011
</metadata>
<g transform="translate(0.000000,300.000000) scale(0.100000,-0.100000)"
fill="#000000" stroke="none">
<path d="M666 2208 c-35 -35 -146 -151 -247 -258 -101 -107 -236 -250 -301
-317 -135 -140 -142 -158 -85 -215 160 -159 685 -657 707 -671 26 -17 31 -17
59 -3 35 19 81 75 81 100 0 32 -17 51 -217 241 -338 321 -403 386 -403 401 0
8 100 119 222 247 384 401 378 395 378 419 -1 34 -83 118 -116 118 -7 0 -43
-28 -78 -62z m128 -10 l44 -43 -264 -275 c-146 -151 -290 -304 -321 -339 l-57
-63 39 -36 c22 -20 130 -121 240 -226 350 -335 367 -351 379 -358 7 -5 -5 -24
-36 -55 l-47 -47 -113 110 c-62 61 -221 213 -353 339 -132 125 -251 238 -265
251 l-24 24 115 117 c117 120 435 454 549 576 34 37 64 67 66 67 2 0 24 -19
48 -42z"/>
<path d="M2179 2221 c-27 -26 -49 -55 -49 -63 0 -24 38 -66 335 -367 154 -156
279 -288 277 -295 -2 -6 -138 -146 -303 -311 -305 -305 -319 -320 -319 -343 0
-19 96 -112 117 -112 10 0 181 164 390 372 328 327 373 376 373 403 0 27 -45
75 -368 398 -216 216 -376 367 -387 367 -10 0 -40 -22 -66 -49z m434 -1086
c-203 -203 -369 -371 -371 -374 -1 -3 -23 15 -47 39 l-45 45 330 330 330 330
-325 325 -325 324 42 43 43 43 367 -367 368 -368 -367 -370z"/>
<path d="M879 1901 l-24 -19 0 -332 0 -332 24 -19 c35 -29 121 -26 149 4 19
20 22 35 22 116 0 114 9 115 67 6 53 -102 70 -115 142 -115 69 0 83 12 136
118 20 40 40 70 46 67 5 -4 9 -128 9 -306 0 -287 1 -300 20 -319 26 -26 40
-19 118 64 34 37 66 66 71 66 6 0 41 -37 79 -82 103 -124 96 -119 192 -116
123 4 131 35 39 143 -28 33 -72 84 -98 114 -70 82 -76 91 -64 110 6 9 58 76
117 149 58 73 106 141 106 151 0 38 -27 51 -101 51 -39 0 -78 -4 -88 -9 -10
-6 -53 -53 -95 -105 -43 -53 -82 -96 -87 -96 -5 0 -9 140 -9 329 0 317 -1 329
-21 355 -18 23 -28 26 -79 26 -47 0 -64 -5 -84 -22 -14 -13 -64 -106 -111
-208 -48 -102 -90 -189 -95 -194 -5 -5 -52 78 -109 192 -57 113 -110 207 -123
216 -33 23 -119 21 -149 -3z m256 -262 l122 -246 114 244 114 245 63 1 62 2 0
-403 0 -402 123 152 123 153 77 3 c42 2 77 0 77 -3 0 -6 -176 -225 -236 -294
l-31 -36 133 -155 c73 -85 133 -158 134 -162 0 -5 -35 -8 -78 -8 l-79 0 -94
120 c-52 65 -96 119 -99 119 -3 0 -24 -23 -48 -52 -24 -29 -63 -74 -88 -102
l-45 -50 3 412 c2 226 2 411 1 410 -1 -2 -40 -80 -87 -175 l-86 -173 -56 3
-56 3 -87 172 c-47 94 -88 174 -91 176 -3 3 -3 -80 -2 -184 l4 -189 -66 0 -66
0 0 328 c0 181 2 331 4 333 2 2 30 4 62 4 l57 0 122 -246z"/>
</g>
</svg>
